<svg preserveAspectRatio="none" width="100%" height="100%" overflow="visible" style="display: block;" viewBox="0 0 57 63" fill="none" xmlns="http://www.w3.org/2000/svg">
<path id="Vector" d="M0 55.8V23.4C0 22.26 0.252937 21.18 0.758812 20.16C1.26469 19.14 1.96175 18.3 2.85 17.64L24.225 1.44C25.4719 0.48 26.8969 0 28.5 0C30.1031 0 31.5281 0.48 32.775 1.44L54.15 17.64C55.0406 18.3 55.7389 19.14 56.2447 20.16C56.7506 21.18 57.0024 22.26 57 23.4V55.8C57 57.78 56.3017 59.4756 54.9052 60.8868C53.5087 62.298 51.832 63.0024 49.875 63H39.1875C38.1781 63 37.3326 62.6544 36.651 61.9632C35.9694 61.272 35.6274 60.4176 35.625 59.4V41.4C35.625 40.38 35.283 39.5256 34.599 38.8368C33.915 38.148 33.0695 37.8024 32.0625 37.8H24.9375C23.9281 37.8 23.0826 38.1456 22.401 38.8368C21.7194 39.528 21.3774 40.3824 21.375 41.4V59.4C21.375 60.42 21.033 61.2756 20.349 61.9668C19.665 62.658 18.8195 63.0024 17.8125 63H7.125C5.16562 63 3.48887 62.2956 2.09475 60.8868C0.700624 59.478 0.002375 57.7824 0 55.8Z" fill="var(--fill-0, #FF8C00)"/>
</svg>
