<svg width="635" height="785" viewBox="0 0 635 785" fill="none" xmlns="http://www.w3.org/2000/svg">
<g opacity="0.66">
<mask id="mask0_150_284" style="mask-type:luminance" maskUnits="userSpaceOnUse" x="-1" y="-356" width="541" height="539">
<path d="M0 -356H539.729V182.76H0V-356Z" fill="white"/>
</mask>
<g mask="url(#mask0_150_284)">
<path d="M0.356079 51.2095C0.112 53.3194 -3.98962 92.9578 23.3676 112.246C31.9015 118.26 40.8605 120.449 47.5364 121.252L412.856 181.65C429.569 184.422 442.906 181.957 455.132 173.061C467.106 164.354 471.735 151.719 474.427 136.107L539.014 -236.03C544.029 -264.938 521.576 -287.477 496.549 -292.468C509.216 -260.01 520.829 -271.511 511.271 -222.064L478.12 -50.4256L449.322 112.23C446.44 128.581 426.483 149.152 407.857 147.05C350.474 140.508 296.783 131.108 240.454 121.685L27.0677 86.0064L0.371826 51.1938L0.356079 51.2095Z" fill="#5EA8C2"/>
<path d="M27.0529 86.0457L240.439 121.724C296.799 131.148 350.459 140.548 407.842 147.09C426.469 149.2 446.426 128.629 449.307 112.277L478.105 -50.3862L511.256 -222.024C513.972 -233.636 520.546 -268.236 501.14 -288.327C499.754 -289.744 498.227 -291.13 496.542 -292.429C368.731 -313.504 240.888 -334.516 113.037 -355.559C85.9005 -359.936 66.2741 -331.634 62.1174 -307.851L0.939514 43.6597C0.498657 46.0136 -2.05206 60.8456 7.98547 73.5677C14.8031 82.2196 23.6992 85.1246 27.0293 86.0378H27.0529V86.0457Z" fill="#72D0F1"/>
</g>
<mask id="mask1_150_284" style="mask-type:luminance" maskUnits="userSpaceOnUse" x="507" y="-268" width="540" height="540">
<path d="M507.27 -267.292H1047V271.469H507.27V-267.292Z" fill="white"/>
</mask>
<g mask="url(#mask1_150_284)">
<path d="M507.634 139.91C507.382 142.02 503.28 181.658 530.637 200.946C539.179 206.961 548.13 209.15 554.806 209.953L920.126 270.351C936.839 273.122 950.175 270.658 962.401 261.754C974.376 253.047 979.005 240.412 981.697 224.8L1046.28 -147.321C1051.29 -176.229 1028.84 -198.769 1003.81 -203.76C1016.48 -171.301 1028.09 -182.803 1018.53 -133.355L985.381 38.2829L956.584 200.938C953.702 217.29 933.745 237.861 915.119 235.751C857.735 229.209 804.044 219.809 747.716 210.386L534.329 174.707L507.634 139.894V139.91Z" fill="#D0B32A"/>
<path d="M534.322 174.754L747.709 210.433C804.061 219.856 857.728 229.256 915.112 235.798C933.738 237.908 953.695 217.337 956.576 200.986L985.374 38.33L1018.53 -133.308C1021.24 -144.92 1027.82 -179.52 1008.41 -199.611C1007.02 -201.028 1005.5 -202.414 1003.8 -203.713C875.993 -224.78 748.142 -245.792 620.299 -266.827C593.162 -271.204 573.536 -242.902 569.379 -219.119L508.201 132.392C507.76 134.746 505.21 149.578 515.239 162.3C522.057 170.952 530.961 173.857 534.283 174.778H534.315L534.322 174.754Z" fill="#FED700"/>
</g>
<mask id="mask2_150_284" style="mask-type:luminance" maskUnits="userSpaceOnUse" x="418" y="245" width="541" height="540">
<path d="M418.57 245.521H958.299V784.281H418.57V245.521Z" fill="white"/>
</mask>
<g mask="url(#mask2_150_284)">
<path d="M418.922 652.722C418.671 654.832 414.569 694.47 441.926 713.766C450.46 719.781 459.419 721.969 466.095 722.772L831.415 783.171C848.128 785.942 861.464 783.478 873.69 774.582C885.665 765.875 890.294 753.239 892.986 737.628L957.573 365.491C962.588 336.583 940.135 314.043 915.108 309.052C927.775 341.511 939.395 330.009 929.83 379.457L896.678 551.095L867.88 713.758C864.999 730.11 845.042 750.681 826.415 748.571C769.032 742.029 715.341 732.629 659.013 723.205L445.626 687.535L418.93 652.714L418.922 652.722Z" fill="#885299"/>
<path d="M445.619 687.566L659.006 723.237C715.358 732.668 769.025 742.06 826.408 748.602C845.035 750.712 864.992 730.141 867.873 713.79L896.671 551.126L929.823 379.488C932.539 367.876 939.112 333.276 919.706 313.185C918.321 311.768 916.794 310.383 915.101 309.084C787.29 288.017 659.439 267.005 531.596 245.969C504.459 241.592 484.833 269.894 480.676 293.677L419.498 645.188C419.057 647.542 416.506 662.374 426.536 675.096C433.354 683.748 442.25 686.661 445.58 687.574H445.611L445.619 687.566Z" fill="#9D64AA"/>
</g>
</g>
</svg>
