<svg width="871" height="963" viewBox="0 0 871 963" fill="none" xmlns="http://www.w3.org/2000/svg">
<mask id="mask0_154_71" style="mask-type:luminance" maskUnits="userSpaceOnUse" x="331" y="-179" width="540" height="540">
<path d="M870.998 -178H331.27V360.76H870.998V-178Z" fill="white"/>
</mask>
<g mask="url(#mask0_154_71)">
<path d="M870.642 229.209C870.886 231.319 874.988 270.958 847.631 290.246C839.097 296.26 830.138 298.449 823.462 299.252L458.142 359.65C441.429 362.421 428.093 359.957 415.867 351.061C403.892 342.354 399.263 329.719 396.571 314.107L331.984 -58.0298C326.969 -86.9379 349.422 -109.477 374.449 -114.468C361.782 -82.0096 350.17 -93.5115 359.727 -44.0638L392.879 127.574L421.677 290.23C424.558 306.581 444.515 327.152 463.142 325.05C520.525 318.508 574.216 309.108 630.544 299.685L843.931 264.006L870.627 229.194L870.642 229.209Z" fill="#5EA8C2"/>
<path d="M843.945 264.046L630.559 299.724C574.199 309.148 520.54 318.548 463.156 325.09C444.53 327.2 424.573 306.628 421.691 290.277L392.894 127.614L359.742 -44.0244C357.026 -55.6365 350.452 -90.2365 369.858 -110.327C371.244 -111.744 372.771 -113.13 374.456 -114.429C502.267 -135.504 630.11 -156.516 757.961 -177.559C785.098 -181.936 804.724 -153.634 808.881 -129.851L870.059 221.66C870.5 224.014 873.05 238.845 863.013 251.568C856.195 260.22 847.299 263.125 843.969 264.038H843.945V264.046Z" fill="#72D0F1"/>
</g>
<mask id="mask1_154_71" style="mask-type:luminance" maskUnits="userSpaceOnUse" x="-176" y="-90" width="540" height="540">
<path d="M363.729 -89.2917H-176V449.469H363.729V-89.2917Z" fill="white"/>
</mask>
<g mask="url(#mask1_154_71)">
<path d="M363.365 317.91C363.617 320.02 367.718 359.658 340.361 378.946C331.819 384.961 322.868 387.149 316.192 387.952L-49.1271 448.351C-65.8406 451.122 -79.1768 448.658 -91.4029 439.754C-103.377 431.047 -108.006 418.411 -110.699 402.8L-175.277 30.6786C-180.292 1.77042 -157.84 -20.7688 -132.813 -25.76C-145.48 6.69867 -157.092 -4.80318 -147.534 44.6445L-114.383 216.283L-85.5851 378.938C-82.7037 395.29 -62.7467 415.861 -44.1202 413.751C13.2631 407.209 66.9542 397.809 123.283 388.385L336.669 352.707L363.365 317.894V317.91Z" fill="#D0B32A"/>
<path d="M336.676 352.754L123.29 388.432C66.9376 397.856 13.2702 407.256 -44.1131 413.798C-62.7397 415.908 -82.6967 395.337 -85.578 378.985L-114.376 216.33L-147.527 44.6916C-150.243 33.0796 -156.817 -1.52048 -137.411 -21.6113C-136.026 -23.0284 -134.498 -24.414 -132.806 -25.7129C-4.99423 -46.78 122.857 -67.7919 250.7 -88.8275C277.836 -93.2046 297.463 -64.9027 301.619 -41.1196L362.797 310.391C363.238 312.745 365.789 327.577 355.759 340.299C348.942 348.951 340.038 351.856 336.715 352.777H336.684L336.676 352.754Z" fill="#FED700"/>
</g>
<mask id="mask2_154_71" style="mask-type:luminance" maskUnits="userSpaceOnUse" x="-88" y="423" width="541" height="540">
<path d="M452.428 423.52H-87.3008V962.281H452.428V423.52Z" fill="white"/>
</mask>
<g mask="url(#mask2_154_71)">
<path d="M452.076 830.722C452.328 832.832 456.429 872.47 429.072 891.766C420.538 897.781 411.579 899.969 404.903 900.772L39.5839 961.171C22.8704 963.942 9.53419 961.478 -2.69193 952.582C-14.6661 943.875 -19.2952 931.239 -21.9876 915.628L-86.5743 543.491C-91.5892 514.583 -69.1366 492.043 -44.1096 487.052C-56.7766 519.511 -68.3965 508.009 -58.8313 557.457L-25.6799 729.095L3.11804 891.758C5.9994 908.11 25.9564 928.681 44.583 926.571C101.966 920.029 155.657 910.629 211.986 901.205L425.372 865.535L452.068 830.714L452.076 830.722Z" fill="#885299"/>
<path d="M425.379 865.566L211.993 901.237C155.641 910.668 101.973 920.06 44.59 926.602C25.9635 928.712 6.00644 908.141 3.12507 891.79L-25.6729 729.126L-58.8243 557.488C-61.5404 545.876 -68.114 511.276 -48.708 491.185C-47.3225 489.768 -45.7952 488.383 -44.1026 487.084C83.7089 466.017 211.56 445.005 339.403 423.969C366.539 419.592 386.166 447.894 390.322 471.677L451.5 823.188C451.941 825.542 454.492 840.374 444.462 853.096C437.645 861.748 428.749 864.661 425.418 865.574H425.387L425.379 865.566Z" fill="#9D64AA"/>
</g>
</svg>
