<svg width="50" height="57" viewBox="0 0 50 57" fill="none" xmlns="http://www.w3.org/2000/svg">
<path d="M50 36.6113V45.7641C50 49.2854 49.5925 52.5067 48.8551 54.8356C48.7393 55.2231 48.5489 55.5833 48.2949 55.8952C48.0409 56.2071 47.7284 56.4645 47.3756 56.6522C47.0227 56.84 46.6367 56.9545 46.2399 56.9889C45.8431 57.0234 45.4436 56.9772 45.0646 56.853C44.6855 56.7287 44.3346 56.529 44.0323 56.2654C43.73 56.0019 43.4823 55.6797 43.3036 55.3177C43.125 54.9558 43.019 54.5613 42.9918 54.1572C42.9646 53.7532 43.0168 53.3476 43.1454 52.9643C43.6803 51.2736 44.0003 48.5811 44.0003 45.7641V36.6113C44.0003 36.0718 43.7896 35.5545 43.4146 35.1731C43.0395 34.7916 42.5308 34.5773 42.0004 34.5773C41.47 34.5773 40.9613 34.7916 40.5863 35.1731C40.2112 35.5545 40.0005 36.0718 40.0005 36.6113V37.6283C40.0005 38.4374 39.6845 39.2134 39.1219 39.7856C38.5593 40.3578 37.7963 40.6792 37.0007 40.6792C36.2051 40.6792 35.4421 40.3578 34.8795 39.7856C34.3169 39.2134 34.0009 38.4374 34.0009 37.6283V32.5434C34.0009 32.0039 33.7902 31.4866 33.4151 31.1051C33.0401 30.7237 32.5314 30.5094 32.001 30.5094C31.4706 30.5094 30.9619 30.7237 30.5868 31.1051C30.2118 31.4866 30.0011 32.0039 30.0011 32.5434V35.5943C30.0011 36.4035 29.685 37.1795 29.1224 37.7516C28.5599 38.3238 27.7969 38.6452 27.0012 38.6452C26.2056 38.6452 25.4426 38.3238 24.88 37.7516C24.3175 37.1795 24.0014 36.4035 24.0014 35.5943V18.3056C24.0014 17.7662 23.7907 17.2489 23.4157 16.8674C23.0406 16.486 22.5319 16.2717 22.0015 16.2717C21.4711 16.2717 20.9624 16.486 20.5874 16.8674C20.2123 17.2489 20.0016 17.7662 20.0016 18.3056V45.7641C20.0009 46.4265 19.7882 47.0706 19.3958 47.5992C19.0034 48.1277 18.4524 48.5121 17.8263 48.6941C17.2001 48.8761 16.5327 48.846 15.9248 48.6082C15.317 48.3704 14.8017 47.9379 14.4569 47.376L9.78718 39.7487L9.73468 39.6622C9.47213 39.1926 9.03689 38.8482 8.52471 38.705C8.01253 38.5617 7.46537 38.6312 7.00358 38.8982C6.5418 39.1652 6.20323 39.6079 6.06235 40.1288C5.92147 40.6497 5.98982 41.2062 6.25237 41.6758L12.5695 52.3236C12.9803 53.0168 13.1034 53.8475 12.9119 54.6331C12.7204 55.4186 12.2299 56.0946 11.5483 56.5123C10.8668 56.93 10.05 57.0553 9.27758 56.8605C8.5052 56.6657 7.84054 56.1669 7.42981 55.4737L1.10265 44.7954L1.07265 44.7446C0.0800421 42.9969 -0.238441 40.9365 0.17907 38.9634C0.596581 36.9903 1.72028 35.2455 3.33189 34.0678C4.9435 32.8902 6.92797 32.3638 8.89981 32.5909C10.8717 32.818 12.6901 33.7825 14.002 35.2968V18.3056C14.002 16.1479 14.8448 14.0785 16.345 12.5527C17.8452 11.027 19.8799 10.1698 22.0015 10.1698C24.1231 10.1698 26.1579 11.027 27.6581 12.5527C29.1583 14.0785 30.0011 16.1479 30.0011 18.3056V24.6618C31.7887 24.1925 33.6808 24.3665 35.3566 25.1543C37.0325 25.9421 38.3888 27.2951 39.1956 28.9839C40.4064 28.5229 41.709 28.3672 42.992 28.5302C44.2749 28.6931 45.4998 29.1699 46.5619 29.9197C47.624 30.6695 48.4916 31.6699 49.0904 32.8353C49.6892 34.0007 50.0013 35.2964 50 36.6113ZM7.00233 21.3566C7.79794 21.3566 8.56096 21.0351 9.12354 20.463C9.68612 19.8908 10.0022 19.1148 10.0022 18.3056C10.0022 15.069 11.2664 11.9649 13.5167 9.67628C15.767 7.38763 18.8191 6.10188 22.0015 6.10188C25.1839 6.10188 28.236 7.38763 30.4863 9.67628C32.7367 11.9649 34.0009 15.069 34.0009 18.3056C34.0009 19.1148 34.3169 19.8908 34.8795 20.463C35.4421 21.0351 36.2051 21.3566 37.0007 21.3566C37.7963 21.3566 38.5593 21.0351 39.1219 20.463C39.6845 19.8908 40.0005 19.1148 40.0005 18.3056C40.0005 13.4507 38.1042 8.79457 34.7287 5.3616C31.3533 1.92862 26.7752 0 22.0015 0C17.2279 0 12.6498 1.92862 9.27429 5.3616C5.89882 8.79457 4.0025 13.4507 4.0025 18.3056C4.0025 19.1148 4.31855 19.8908 4.88113 20.463C5.44371 21.0351 6.20673 21.3566 7.00233 21.3566Z" fill="#505050"/>
</svg>
